<?xml version="1.0" encoding="UTF-8"?>
<svg width="1200pt" height="1200pt" version="1.1" viewBox="0 0 1200 1200" xmlns="http://www.w3.org/2000/svg">
 <path transform="scale(18.75)" d="m26.8 41.3-7.6 18.9-7.1 2.8-3.1-7.1 1.4-3.3 4.3-1.8-1.8-4.4 4.3-1.9-1.8-4.4 2-4.9" fill="none" stroke="#000" stroke-linecap="round" stroke-linejoin="round" stroke-miterlimit="10" stroke-width="2"/>
 <path transform="scale(18.75)" d="m45.4 37.4 8 18.8-3.1 6.8-7.1-2.6-1.4-3.4 1.7-4.3-4.4-1.9 1.8-4.3-4.4-1.9-1.7-4.1" fill="none" stroke="#000" stroke-linecap="round" stroke-linejoin="round" stroke-miterlimit="10" stroke-width="2"/>
 <path transform="scale(18.75)" d="m24.9 32.2c2.8 6.7 10.5 9.9 17.2 7.1s9.9-10.5 7.1-17.2c-2.7-6.7-10.4-9.9-17.2-7.1-5 2.1-8 6.9-8.1 11.9-0.1 1.8 0.3 3.6 1 5.3z" fill="none" stroke="#000" stroke-miterlimit="10" stroke-width="2"/>
 <path transform="matrix(17.323 -7.1756 7.1756 17.323 -114.02 294.1)" d="m39.9 23.1c5.6e-5 1.933-1.567 3.5-3.5 3.5s-3.5-1.567-3.5-3.5c2.4e-5 -1.9331 1.5671-3.5002 3.5-3.5 1.9331 2.4e-5 3.5002 1.5671 3.5 3.5z" fill="none" stroke="#000" stroke-miterlimit="10" stroke-width="2"/>
 <path transform="scale(18.75)" d="m21.3 14.8c-0.3-1.3-0.5-2.6-0.3-4 0.7-6 6.1-10.4 12.1-9.7s10.4 6.1 9.7 12.1c-0.3 2.8-1.6 5.2-3.5 6.9-1.6 1.4-3.6 2.4-5.8 2.7" fill="none" stroke="#000" stroke-linecap="round" stroke-miterlimit="10" stroke-width="2"/>
 <path transform="scale(18.75)" d="m32.5 14.8c-4.9-1.8-10.2-0.5-13.7 2.9-1.3 1.2-2.3 2.7-3 4.4-2.8 6.7 0.4 14.4 7.1 17.2 3.2 1.3 6.6 1.3 9.6 0.2" fill="none" stroke="#000" stroke-miterlimit="10" stroke-width="2"/>
</svg>
